<svg xmlns="http://www.w3.org/2000/svg" width="884" height="286" viewBox="0 0 884 286" version="1.1"><path d="M 98.839 10.736 C 95.209 10.966, 92.987 11.591, 92.647 12.478 C 92.355 13.238, 92.385 19.545, 92.713 26.493 C 93.481 42.747, 94.258 44, 103.573 44 C 108.307 44, 110 44.356, 110 45.352 C 110 47.689, 105.597 53.360, 101.976 55.685 C 93.796 60.938, 94.294 59.842, 96.559 67.614 C 98.877 75.568, 99.356 75.733, 109.282 72.004 C 125.021 66.092, 132.292 54.293, 132.404 34.489 C 132.465 23.642, 130.453 17.483, 125.400 13.047 C 122.053 10.107, 121.623 10.007, 113.215 10.189 C 108.422 10.293, 101.952 10.539, 98.839 10.736 M 37 13.663 C 33.425 13.837, 28.587 14.237, 26.250 14.551 L 22 15.123 22 89.177 L 22 163.232 72.250 162.502 C 99.888 162.100, 122.626 161.659, 122.781 161.521 C 123.756 160.654, 124.143 149.599, 123.520 140.447 L 122.786 129.682 89.901 130.352 L 57.016 131.022 56.758 72.261 L 56.500 13.500 50 13.423 C 46.425 13.380, 40.575 13.488, 37 13.663 M 156.667 14.667 C 156.300 15.033, 156 48.558, 156 89.167 L 156 163 206.500 163 L 257 163 257 155.151 C 257 150.834, 256.704 143.795, 256.341 139.510 L 255.683 131.718 223.341 132.222 L 191 132.726 191 117.363 L 191 102 215.750 101.985 C 229.363 101.976, 241.075 101.604, 241.779 101.158 C 242.742 100.547, 242.988 96.792, 242.779 85.923 L 242.500 71.500 216.750 71.881 L 191 72.261 191 58.145 L 191 44.028 222.250 43.764 L 253.500 43.500 253.777 28.750 L 254.053 14 205.693 14 C 179.095 14, 157.033 14.300, 156.667 14.667 M 277.500 50.927 L 270.500 51.500 270.218 83.500 C 269.910 118.514, 270.850 132.851, 274.006 141.287 C 280.085 157.535, 294.477 166.134, 316 166.377 C 328.654 166.521, 335.256 164.676, 342.960 158.845 C 345.846 156.661, 348.495 155.161, 348.846 155.513 C 349.198 155.864, 349.939 158.030, 350.493 160.326 L 351.500 164.500 365.724 164.777 L 379.948 165.055 380.635 162.318 C 381.013 160.813, 381.026 135.740, 380.664 106.601 C 380.157 65.841, 379.717 53.435, 378.753 52.812 C 378.064 52.367, 370.318 52.115, 361.540 52.252 L 345.580 52.500 344.756 56 C 344.303 57.925, 344.189 73.225, 344.504 90 L 345.077 120.500 342.788 124.174 C 339.948 128.735, 336.646 131.335, 331.609 132.979 C 322.201 136.048, 312.424 132.873, 308.584 125.500 C 306.642 121.772, 306.446 119.152, 305.708 87 C 305.272 68.025, 304.724 51.938, 304.489 51.250 C 304.039 49.929, 291.507 49.779, 277.500 50.927 M 522.500 52.839 C 506.451 56.992, 493.217 67.182, 486.224 80.770 C 484.036 85.022, 481.634 90.975, 480.886 94 C 478.929 101.910, 479.191 119.109, 481.381 126.500 C 487.439 146.947, 504.790 162.702, 526.588 167.552 C 537.833 170.054, 556.985 169.185, 566.242 165.753 C 585.244 158.709, 598.603 144.449, 603.525 125.955 C 605.426 118.811, 605.402 102.994, 603.478 95.460 C 599.889 81.401, 589.602 67.360, 577.589 60.123 C 566.428 53.399, 560.102 51.751, 544 51.370 C 532.413 51.096, 528.094 51.391, 522.500 52.839 M 812.500 51.684 C 804.973 52.339, 794.501 55.286, 787.776 58.643 C 776.007 64.517, 768.648 73.219, 762.949 88 C 761.377 92.076, 760.869 92.530, 757.558 92.813 C 753.214 93.186, 752.387 94.769, 751.374 104.652 L 750.690 111.327 774.095 110.540 C 786.968 110.107, 804.250 109.471, 812.500 109.126 L 827.500 108.500 829.677 102 C 830.874 98.425, 831.887 94.442, 831.927 93.148 L 832 90.797 812.859 91.531 C 791.614 92.347, 792.671 92.792, 798.523 85.493 C 800.289 83.290, 803.932 80.365, 806.617 78.993 C 813.490 75.484, 826.861 75.414, 835.194 78.843 C 838.326 80.132, 841.356 80.898, 841.927 80.545 C 843.323 79.683, 848 64.164, 848 60.395 C 848 57.563, 847.609 57.268, 841.067 55.161 C 835.349 53.319, 818.839 50.585, 817 51.176 C 816.725 51.264, 814.700 51.493, 812.500 51.684 M 678.500 52.698 C 668.790 53.985, 659.051 58.152, 653.024 63.597 L 649.139 67.107 648.443 62.304 C 648.061 59.662, 647.299 56.938, 646.751 56.250 C 645.587 54.789, 620.381 54.473, 618.143 55.890 C 617.018 56.603, 616.899 64.077, 617.446 99.625 C 618.152 145.533, 619.677 189.994, 620.630 192.478 C 621.120 193.755, 623.854 194, 637.607 194 L 654 194 654 175.568 L 654 157.135 658.986 160.490 C 666.861 165.790, 674.263 168.120, 685.189 168.737 C 703.345 169.762, 714.198 165.959, 725.583 154.580 C 737.252 142.916, 742 130.601, 742 112 C 742 99.680, 740.410 92.450, 735.479 82.348 C 730.917 73.004, 720.551 62.378, 711.805 58.083 C 702.297 53.414, 689.140 51.286, 678.500 52.698 M 452.734 54.088 C 446.794 55.488, 441.076 58.815, 435.424 64.160 L 430.201 69.100 429.528 63.800 C 428.313 54.231, 429.798 55, 412.540 55 C 401.163 55, 397.109 55.322, 396.807 56.250 C 395.563 60.073, 399.152 166.487, 400.573 167.905 C 400.901 168.232, 408.348 168.500, 417.122 168.500 C 430.203 168.500, 433.249 168.230, 434.047 167 C 434.661 166.054, 434.739 158.112, 434.260 145.500 C 432.942 110.827, 433.183 102.107, 435.587 97.500 C 439.850 89.330, 447.602 86.707, 459.133 89.533 C 465.100 90.995, 466.359 91.047, 467.405 89.879 C 469.149 87.931, 478.394 57.447, 477.621 56.195 C 475.978 53.538, 460.598 52.235, 452.734 54.088 M 534.939 83.317 C 521.362 87.122, 512.659 102.074, 515.975 115.897 C 519.440 130.339, 533.743 139.856, 547.645 136.970 C 563.134 133.754, 572.254 117.707, 567.631 101.804 C 563.650 88.108, 548.471 79.524, 534.939 83.317 M 672.803 84.348 C 662.682 87.183, 656.322 93.734, 653.642 104.084 C 649.245 121.065, 662.552 138.347, 680 138.315 C 695.070 138.287, 706.368 126.583, 706.368 111 C 706.368 99.964, 701.069 91.134, 691.704 86.562 C 685.203 83.388, 678.876 82.647, 672.803 84.348 M 760.894 113.087 C 760.127 113.572, 758.280 113.976, 756.789 113.985 C 754.493 113.998, 753.918 114.591, 753.040 117.853 C 752.469 119.972, 751.715 123.797, 751.365 126.353 L 750.728 131 756.114 131.061 L 761.500 131.121 765.399 139.244 C 770.039 148.912, 774.970 154.539, 783.553 159.960 C 799.124 169.793, 825.457 171.412, 844.868 163.729 C 849.825 161.767, 850.536 161.135, 850.798 158.455 C 850.962 156.781, 849.775 151.831, 848.160 147.455 C 845.270 139.625, 845.171 139.502, 841.862 139.599 C 840.013 139.653, 835.800 140.733, 832.500 141.998 C 824.873 144.923, 815.268 145.199, 809 142.673 C 805 141.061, 795 132.652, 795 130.901 C 795 130.530, 801.754 129.899, 810.009 129.500 L 825.019 128.773 825.592 126.136 C 825.907 124.686, 826.578 122.195, 827.083 120.601 C 827.587 119.006, 828 116.490, 828 115.010 L 828 112.318 795.144 112.261 C 777.073 112.230, 761.661 112.601, 760.894 113.087" stroke="none" fill="#e2e8f0" fill-rule="evenodd"/><path d="M 117.800 234.664 C 117.572 245.574, 117.590 255.110, 117.840 255.856 C 118.195 256.914, 120.619 257.131, 128.898 256.848 C 138.272 256.526, 140.039 256.168, 144.154 253.756 C 153.547 248.250, 156.575 234.295, 150.500 224.512 C 146.055 217.355, 141.939 215.577, 128.858 215.164 L 118.215 214.829 117.800 234.664 M 165.602 235.659 C 161.370 246.471, 158.144 255.932, 158.432 256.683 C 158.792 257.620, 159.826 257.844, 161.728 257.395 C 165.245 256.566, 165.509 256.282, 166.957 251.750 L 168.155 248 176.164 248 L 184.172 248 186.284 253 C 188.213 257.564, 188.685 258, 191.698 258 C 194.179 258, 194.998 257.565, 194.991 256.250 C 194.987 255.287, 191.837 245.992, 187.991 235.593 C 184.146 225.194, 181 216.531, 181 216.343 C 181 216.154, 179.267 216, 177.148 216 L 173.297 216 165.602 235.659 M 203.642 219.750 C 203.301 221.813, 203.017 231.262, 203.011 240.750 L 203 258 206.500 258 C 209.757 258, 210.009 257.774, 210.123 254.750 C 210.190 252.963, 210.527 246.824, 210.873 241.109 L 211.500 230.718 218.398 240.609 C 222.192 246.049, 226.835 252.412, 228.715 254.750 C 232.036 258.878, 235.177 260.141, 236.560 257.903 C 236.933 257.300, 237.621 248.217, 238.089 237.719 C 239.010 217.059, 238.749 215.657, 234.086 216.199 L 231.500 216.500 231 229.671 C 230.725 236.915, 230.272 243.068, 229.993 243.345 C 229.714 243.621, 226.620 239.801, 223.118 234.856 C 212.252 219.511, 209.177 216, 206.608 216 C 204.674 216, 204.153 216.659, 203.642 219.750 M 257.333 217.042 C 249.208 219.537, 246.049 230.339, 251.984 235.333 C 253.626 236.715, 257.563 238.814, 260.734 239.999 C 269.921 243.431, 271.877 246.123, 268 250 C 265.559 252.441, 261.072 252.575, 255.321 250.379 C 250.455 248.520, 248.514 248.928, 247.716 251.977 C 247.011 254.673, 251.216 257.452, 258.300 258.971 C 272.615 262.041, 283.801 248.710, 274.615 239.525 C 273.349 238.258, 269.565 236.219, 266.206 234.995 C 259.511 232.554, 256.638 230.120, 257.172 227.345 C 257.734 224.429, 262.274 223.434, 268.774 224.803 C 273.868 225.876, 274.638 225.822, 275.750 224.314 C 277.810 221.519, 277.196 219.980, 273.387 218.389 C 268.701 216.430, 261.336 215.812, 257.333 217.042 M 307.750 218.540 C 306.535 219.825, 306.892 224.031, 308.250 224.431 C 308.938 224.634, 312.200 225.182, 315.500 225.650 L 321.500 226.500 321.134 243.317 L 320.767 260.135 324.634 259.817 L 328.500 259.500 328.743 245 C 329.079 224.923, 328.536 226.147, 337.258 225.794 C 343.633 225.535, 344.531 225.261, 344.756 223.500 C 345.290 219.319, 344.084 218.989, 325.930 218.355 C 316.343 218.020, 308.163 218.104, 307.750 218.540 M 363.615 220.472 C 357.787 222.550, 352.185 228.556, 350.423 234.616 C 346.290 248.833, 356.961 262.063, 372.493 261.978 C 390.623 261.879, 399.791 238.170, 386.610 225.473 C 380.248 219.344, 371.885 217.525, 363.615 220.472 M 402.435 222.402 C 402.087 223.790, 401.959 230.985, 402.151 238.391 C 402.455 250.103, 402.769 252.216, 404.562 254.617 C 408.448 259.818, 411.602 261.413, 418.782 261.806 C 424.539 262.120, 425.993 261.838, 428.946 259.833 C 435.285 255.528, 436.259 252.558, 436.794 235.887 L 437.272 221 433.767 221 C 430.493 221, 430.221 221.248, 429.642 224.750 C 429.301 226.813, 429.017 232.685, 429.011 237.800 C 428.999 247.658, 427.655 252.044, 424.055 253.970 C 420.783 255.722, 416.278 255.143, 413.306 252.590 C 410.516 250.193, 410.497 250.097, 410 235.340 L 409.500 220.500 406.284 220.189 C 403.560 219.926, 402.972 220.264, 402.435 222.402 M 457.500 220.907 C 452.722 222.095, 450.132 223.844, 448.510 226.980 C 444.739 234.274, 448.208 240.287, 458.014 243.455 C 465.495 245.871, 468 247.605, 468 250.368 C 468 255.728, 462.218 257.342, 453.813 254.330 C 449.944 252.944, 448.853 252.877, 447.563 253.948 C 443.403 257.400, 448.825 261.714, 458.593 262.722 C 468.606 263.755, 476 258.711, 476 250.846 C 476 245.636, 472.527 242.088, 464.488 239.084 C 455.452 235.709, 453.173 232.970, 456.571 229.571 C 458.329 227.813, 463.849 227.523, 468.755 228.930 C 471.267 229.650, 472.346 229.511, 473.543 228.314 C 475.554 226.303, 475.008 224.899, 471.420 222.856 C 467.812 220.802, 461.486 219.917, 457.500 220.907 M 588.538 221.442 C 583.282 223.390, 581.050 226.474, 581.022 231.827 C 580.993 237.440, 584.533 241.137, 592.042 243.334 C 601.693 246.159, 604.320 249.680, 600 254 C 597.570 256.430, 594.817 256.513, 588.140 254.356 C 584.005 253.021, 582.765 252.950, 581.526 253.979 C 577.401 257.402, 582.482 261.451, 592.358 262.612 C 602.193 263.768, 610 258.243, 610 250.126 C 610 245.618, 605.945 241.589, 598.770 238.970 C 588.818 235.336, 586.349 231.783, 591.451 228.440 C 593.567 227.054, 594.648 227.002, 599.365 228.057 C 605.888 229.517, 608.263 228.873, 607.820 225.764 C 607.183 221.297, 595.808 218.747, 588.538 221.442 M 640.401 221.396 C 640.095 222.196, 640.216 231.771, 640.672 242.675 L 641.500 262.500 655.500 262.500 L 669.500 262.500 669.500 259 L 669.500 255.500 660.034 255.210 C 654.009 255.025, 650.289 254.480, 649.799 253.710 C 649.377 253.044, 649.024 250.861, 649.015 248.857 C 648.997 244.505, 649.946 244, 658.145 244 L 664.127 244 663.813 240.750 L 663.500 237.500 656.500 237 L 649.500 236.500 649.193 232.250 L 648.885 228 657.693 227.985 C 662.537 227.976, 667.099 227.590, 667.830 227.126 C 668.586 226.647, 669.018 225.034, 668.830 223.391 L 668.500 220.500 654.729 220.222 C 643.427 219.993, 640.859 220.204, 640.401 221.396 M 678.170 220.874 C 677.414 221.353, 676.982 222.966, 677.170 224.609 C 677.493 227.438, 677.642 227.506, 684.116 227.793 L 690.732 228.085 691.357 233.293 C 691.701 236.157, 691.993 243.450, 692.007 249.500 C 692.020 255.550, 692.408 261.096, 692.870 261.824 C 693.375 262.621, 695.063 263.019, 697.105 262.824 L 700.500 262.500 700.321 245.861 L 700.143 229.222 707.571 228.525 L 715 227.829 715 224.570 L 715 221.310 701.342 220.655 C 683.702 219.809, 679.791 219.846, 678.170 220.874 M 125.222 235.609 L 125.500 250.500 131.102 250.394 C 140.977 250.206, 146 245.186, 146 235.503 C 146 226.770, 141.139 222.186, 130.896 221.257 L 124.945 220.717 125.222 235.609 M 514.415 222.359 C 510.138 224.308, 507 228.624, 507 232.558 C 507 237.704, 510.841 241.374, 519.550 244.551 C 528.122 247.677, 530.014 249.803, 527.558 253.551 C 525.293 257.008, 521.744 257.542, 514.867 255.460 C 509.278 253.767, 508.811 253.761, 507.224 255.347 C 504.609 257.963, 506.784 260.221, 513.996 262.378 C 526.143 266.011, 536 261.164, 536 251.558 C 536 245.588, 533.409 242.717, 525.503 239.926 C 515.258 236.309, 512.534 232.662, 517.599 229.343 C 519.905 227.832, 520.885 227.783, 526.303 228.902 C 531.857 230.049, 532.525 230.003, 533.704 228.390 C 535.510 225.921, 535.354 225.278, 532.500 223.408 C 529.094 221.176, 518.374 220.554, 514.415 222.359 M 545.695 221.638 C 544.825 222.508, 544.813 230.779, 545.655 248.342 L 546.310 262 559.721 262 L 573.133 262 572.816 259.250 L 572.500 256.500 562.701 256.213 L 552.902 255.926 553.201 250.213 L 553.500 244.500 560.500 244 C 567.167 243.524, 567.500 243.381, 567.500 241 C 567.500 238.590, 567.238 238.489, 560.250 238.206 L 553 237.912 553 232.494 L 553 227.075 562.250 226.788 C 571.373 226.504, 571.500 226.466, 571.500 224 L 571.500 221.500 558.945 221.222 C 552.040 221.068, 546.077 221.256, 545.695 221.638 M 731.514 224.250 C 730.752 226.037, 726.768 235.150, 722.661 244.500 C 718.553 253.850, 715.541 261.870, 715.969 262.323 C 716.396 262.775, 718.265 263, 720.123 262.823 C 722.855 262.562, 723.882 261.784, 725.500 258.753 L 727.500 255.005 737.730 255.003 L 747.959 255 750 259 C 751.865 262.655, 752.384 263, 756.020 263 C 758.209 263, 760 262.524, 760 261.942 C 760 260.765, 750.862 240.730, 744.860 228.750 C 740.979 221.003, 740.976 221, 736.938 221 C 733.331 221, 732.750 221.348, 731.514 224.250 M 761.667 221.667 C 761.300 222.033, 761 223.833, 761 225.667 L 761 229 767.850 229 L 774.701 229 775.350 238.154 C 775.708 243.188, 776 250.830, 776 255.135 C 776 262.771, 776.065 262.978, 778.655 263.628 C 784.112 264.998, 784.500 263.820, 784.500 245.877 L 784.500 229.500 791.750 229.206 L 799 228.912 799 225.573 C 799 222.955, 798.514 222.103, 796.750 221.630 C 793.670 220.805, 762.496 220.837, 761.667 221.667 M 813.316 222.880 C 802.820 227.804, 804.079 240.027, 815.524 244.318 C 825.489 248.055, 827.500 249.343, 827.500 251.988 C 827.500 253.696, 826.663 254.874, 824.826 255.755 C 822.529 256.856, 821.207 256.726, 815.436 254.832 L 808.721 252.627 806.860 254.924 C 804.056 258.387, 804.576 259.925, 809.250 261.990 C 819.035 266.314, 829.961 265.394, 835.180 259.807 C 837.485 257.339, 838 255.887, 838 251.849 C 838 245.820, 835.713 243.124, 828.457 240.598 C 816.279 236.358, 813.613 233.610, 818.544 230.379 C 821.060 228.731, 821.558 228.726, 827.355 230.304 C 833.394 231.948, 833.530 231.941, 835.250 229.878 C 837.782 226.840, 837.422 225.270, 833.758 223.375 C 828.697 220.757, 818.373 220.508, 813.316 222.880 M 363.500 227.988 C 353.064 234.856, 356.059 251.784, 368.292 255.079 C 371.643 255.981, 372.821 255.806, 376.823 253.813 C 390.981 246.761, 386.633 226, 371 226.010 C 368.203 226.012, 365.365 226.760, 363.500 227.988 M 174.285 232.750 C 173.072 235.912, 171.789 239.287, 171.433 240.250 C 170.861 241.798, 171.502 242, 177 242 C 182.498 242, 183.139 241.798, 182.567 240.250 C 179.434 231.774, 177.428 227, 177 227 C 176.719 227, 175.498 229.588, 174.285 232.750 M 734.064 239.352 C 732.220 243.583, 730.948 247.281, 731.237 247.570 C 731.527 247.860, 734.666 247.962, 738.214 247.798 L 744.664 247.500 741.041 239.580 L 737.418 231.661 734.064 239.352" stroke="none" fill="#5b769b" fill-rule="evenodd"/></svg>